<?xml version="1.0" encoding="UTF-8"?><svg xmlns="http://www.w3.org/2000/svg" xmlns:xlink="http://www.w3.org/1999/xlink" clip-rule="evenodd" fill-rule="evenodd" height="84.7" image-rendering="optimizeQuality" preserveAspectRatio="xMidYMid meet" shape-rendering="geometricPrecision" text-rendering="geometricPrecision" version="1.0" viewBox="0.0 0.0 571.8 84.7" width="571.8" zoomAndPan="magnify"><g><g><g id="change1_1"><path d="M0 14.5898L481.7837 14.5898 513.8057 70.1375 32.022 70.1375z" fill="#00828e"/></g><g id="change2_1"><path d="M38.3886 0L99.5027 0 148.3558 84.7273 87.2417 84.7273z" fill="#045882"/></g><g id="change3_1"><path d="M32.5335 14.5898L38.3886 0 46.7993 14.5898z" fill="#062e47"/></g><g id="change3_2"><path d="M154.2109 70.1375L148.3558 84.7273 139.9452 70.1375z" fill="#062e47"/></g><g id="change1_2"><path d="M490.417 14.5898L498.2877 14.5898 530.3098 70.1375 522.439 70.1375z" fill="#00828e"/></g><g id="change1_3"><path d="M506.4489 14.5898L517.5605 14.5898 549.5826 70.1375 538.4709 70.1375z" fill="#00828e"/></g><g id="change1_4"><path d="M526.4192 14.5898L539.7503 14.5898 571.7724 70.1375 558.4412 70.1375z" fill="#00828e"/></g><g id="change3_3"><path d="M133.8193 59.5139L342.8157 59.5139 353.1469 77.4324 144.1505 77.4324z" fill="#062e47"/></g></g></g></svg>